<svg id="Layer_1" data-name="Layer 1" xmlns="http://www.w3.org/2000/svg" width="750" height="369.34" viewBox="0 0 750 369.34"><defs><style>.cls-1{fill:#eb6303;}.cls-1,.cls-2,.cls-3,.cls-4,.cls-5{fill-rule:evenodd;}.cls-2{fill:#202060;}.cls-3{fill:#007534;}.cls-4{fill:#007433;}.cls-5{fill:#803d10;}</style></defs><title>fssai-logo</title><path class="cls-1" d="M636,301.24l-480.39.25-28.67,0,0,15.41,25.58.14.21.08,590.72-.06L750,301.39c-10.84,0-107,.44-108.87-.2-2,.06-2.82.52-5.11.05m-14.25,68.1a10.33,10.33,0,0,0,3.05-.6c7.45-2.22,16.95-4.88,24.72-4.88a13.54,13.54,0,0,1,9.6,3.55c6.09,6.14,2.76,17.15,1.15,25.83l-15,78.48c-1,5.25-2.17,10.42-3,15.62-1.18,7.2-2.19,9.74-2.19,18.26,0,15.55,9.15,28.5,24.48,28.5,14.13,0,25.14-5.23,36.51-12.08a177.56,177.56,0,0,0,15.41-10.89c1.71-1.37,10.21-8.36,10.61-9.12l.3-12.85c-1.44.39-6.53,5.7-8.46,7.25-2.88,2.32-5.57,4.84-8.86,7.21-5.15,3.7-24.53,16.89-30.6,5.7-3.21-5.91-2.13-13.94-.66-20.16,2.05-8.68,4.77-23.36,6.48-31.87,2.84-14.22,5.73-28,8.58-42.2l4.3-20.91c2-8.52,4.73-23.13,6.48-31.88.71-3.56,1.57-7.28,2.18-10.6s4.12-19,4.12-21.45a25.33,25.33,0,0,1-2.79.86l-82.29,26.21c-3.48,1-3.15.41-3.33,4.7C622.4,364.15,621.77,367.21,621.77,369.34Z" transform="translate(0 -190.33)"/><path class="cls-2" d="M423,469.07c0,13.52,2.6,27.36,11.36,35.76l.77.69c15.89,14.71,39.64.83,53-10.06A189.2,189.2,0,0,0,513.48,470c1.62-2,3-3.7,4.49-5.74,5.35-7.14,7.64-10.91,12.47-18.22,3-4.5,4.29-7.38,6.59-11.31l1.08-1.47-2.52,13.18c-1,5.19-7.34,36.11-7.34,40.15,0,25.1,17,29.39,37.37,21.3l6.54-3c2-1.24,4.09-2.15,6.07-3.43a103.31,103.31,0,0,0,16-12.44c1.82-1.82,10.28-10.35,11.22-12.53l2-12.22c-9.85,9.23-16.12,17.93-28.42,25.64-5.28,3.32-17.42,10.07-20.85.62-3.27-9,4.57-34.92,6.58-46.67,1.69-9.88,5.73-26.41,7.78-36.79l3.86-18.42c.7-2.91,1.32-6,1.92-9,.49-2.46,5.73-26.75,5.75-27.86-2.23,0-5.79-.62-8-.72C566,350.59,558.79,350,548,350c-28.68,0-50,5.69-70.3,21l-16.56,14.14c-1.27,1.27-2.42,2.31-3.61,3.69-2.35,2.75-4.91,5.43-7.08,8.27A147,147,0,0,0,441,410.69a128.48,128.48,0,0,0-13.87,31.79,101.37,101.37,0,0,0-4.1,26.59m43.11,19.73a11,11,0,0,1-9.36-5.63c-7.29-12.14-.42-39.39,3.23-52.38a165.66,165.66,0,0,1,11.24-28.58c3.35-6.74,10.48-19.08,15.44-24a33.18,33.18,0,0,1,5.23-4.63c12.89-8.75,29.52-7.6,44.08-4.69,3.13.63,13,3.05,15.26,4.11-.18,2.14-4.95,25-5.26,25.8-.6,1.54-1.41,2.75-2,4.21-4,9.92-17.39,31.42-23.59,39.61l-13.78,17.27A173.91,173.91,0,0,1,494.55,473c-5.1,5-2.31,3.66-10.13,8.86C480.43,484.5,472.6,488.8,466.15,488.8Z" transform="translate(0 -190.33)"/><path class="cls-2" d="M152.7,317.16l-.21-.08-25.58-.14,0-15.41,28.67,0c0-1.75,5.87-33.14,6.23-34.78,4.51-20.6,18.17-39.42,40.25-42.31a45.49,45.49,0,0,1,18.5,1.78c6.53,2.09,14,6.44,14.29,6.53,1-.67,15.07-14.52,17.08-16.53,6.75-6.75,7-5.24-.11-6.29-17.88-2.61-41.06-.47-57.94,6.33A104.77,104.77,0,0,0,171.7,228l-7,5.4c-.89.78-1.56,1.23-2.39,2a106.31,106.31,0,0,0-19.24,23.14c-1.1,1.82-2.22,3.5-3.14,5.26-5.82,11.21-6.12,12.91-9.81,23.8-.67,2-1.39,4.52-1.85,6.56-.3,1.38-.49,2.21-.78,3.6a17.16,17.16,0,0,0-.7,3.68H87V317.1h36.89l-3,17.43c-1,5.61-2,12-3.15,17.67-4.48,22.46-8,47.75-12.49,70.08-2.3,11.55-4.12,23.55-6.33,35.31-7.53,40-10.38,87.63-64.2,78.75-5.88-1-11.06-2.74-16.75-4.07L0,553.82c21.46.48,32.77,5,55.46-3.12a85.73,85.73,0,0,0,38.22-27.77c3.2-4.09,4.84-6.4,7.81-10.83,5.93-8.84,12.42-23.33,16.09-33.22,14.8-39.93,20.77-88.59,29.19-130.46.73-3.63,5.42-30.29,5.93-31.26" transform="translate(0 -190.33)"/><path class="cls-2" d="M179.37,395.64A39.44,39.44,0,0,0,181.7,409a26.89,26.89,0,0,0,5.43,9.91c3.21,3.59,7.52,9,10.79,12.22,2.24,2.24,8.19,9.49,10.77,12.25,9.05,9.67,17.08,17.5,17.08,31.87,0,11.48-10.82,20.09-22.29,20.09h-4.75c-12.13,0-29.43-8.52-36.89-13.51l-19.37,20.45c1.34.12,3.18,1.06,4.67,1.55,8.77,2.89,21.66,6.56,30.77,6.49,2.54,0,3.56.37,6.21.37a81.83,81.83,0,0,0,39.33-10,44.42,44.42,0,0,0,4.51-2.8c20.47-14.51,28.14-39.34,12.64-59.76-3.75-4.95-10.37-12.41-14.51-17.64L211.79,403c-5.54-6.21-9.77-13.34-9.77-22.38,0-13.81,13.9-21.55,26.3-21.55,9.59,0,18.87,2.26,23.83,10.15,4.18,6.63,1.84,11.38,1.75,15.79h9.5l7.3-31.79-6-2.07c-2.29-.66-4-1.09-6.38-1.65-25.34-6-57.44,2.72-72.41,25.27a39.36,39.36,0,0,0-6.57,20.83" transform="translate(0 -190.33)"/><path class="cls-2" d="M311.62,395.28c0,6.8.7,8.83,2.6,14.57a36.55,36.55,0,0,0,2.38,5.28c1.71,3.38,11,13.05,14.1,16.59.74.84.81,1.16,1.64,2a19.92,19.92,0,0,1,1.93,2.1L346.77,450c.72.73,1.34,1.23,2,2,9,10.67,14.18,26.67,2.58,37.43-10.45,9.7-29,5.65-40.36,1.08a116.39,116.39,0,0,1-13.25-6.47c-1.23-.66-2.88-2.07-4.39-2.19L274.72,502c7.59,4,28,8.4,36.9,8.4,13.11,0,18.88.07,31.64-4.16C368,498,388.58,474,378.48,448.61a49.1,49.1,0,0,0-5.64-10.44c-3.2-4.21-10.69-12.9-14.35-17.44-4.8-6-9.6-11.51-14.31-17.47-3.24-4.09-4.1-4.38-6.51-9.2-3.54-7.09-5-15.46-1.09-22.78a18,18,0,0,1,5.27-6c13.25-10.93,45-8.17,45,13.24a22.6,22.6,0,0,1-1.09,6.21h9.86l6.94-31.78c-2.9-.68-6.49-2.16-11.62-3.36-13-3.06-30.48-2.25-42.55,2.52-3.51,1.38-5.92,2.4-9.15,4A55.55,55.55,0,0,0,324,367.42c-6.87,6.82-12.33,17-12.33,27.86" transform="translate(0 -190.33)"/><path class="cls-3" d="M24.84,558.21H14.61c-5.25,0-9.12-.73-14.24-.73v2.19H693c.29-1.25,4-9.19,5-11.09a10.43,10.43,0,0,0,1.59-3.89H87c-19.12,0-7.17-.34-25.89,6.63-10.28,3.83-24.54,6.89-36.22,6.89" transform="translate(0 -190.33)"/><path class="cls-4" d="M664.43,283.57c.45,1.87,1.19,3.14,1.55,4.67-2.14.57-6.35,7.24-22.44,9.71a26.28,26.28,0,0,1-5,.5c-2.91,0-2.54,0-2.54,2.79,2.29.47,3.16,0,5.11-.05,7.45-1.34,11-1.28,18.64-5.28a40.47,40.47,0,0,0,7-4.71c2.34-2,4.65-1,10.09-2,13.07-2.28,22-10.14,28.3-19.55,12.82-19.28,16.37-47.34,16.37-79.35h-.74c-.48,5.83-12.07,23-16.9,28.4-.83.94-1.14,1.48-2,2.38l-17.54,18.63c-3.31,3.57-7.86,8.65-10.68,12.33-4.08,5.35-8,11.24-9.42,18a26.53,26.53,0,0,0,.2,13.51" transform="translate(0 -190.33)"/><path class="cls-5" d="M661.78,273.08a14.31,14.31,0,0,0-1.29-2.11A13.89,13.89,0,0,0,639,269.69c-2.45,2.66-3.77,5.41-3.76,10.52,0,4.25,1.76,7,4.31,9.58a13.86,13.86,0,0,0,20.08-.56,16.28,16.28,0,0,0,3.59-7.78,15,15,0,0,0-1.47-8.37" transform="translate(0 -190.33)"/></svg>