<?xml version="1.0" encoding="UTF-8"?>
<svg width="232px" height="42px" viewBox="0 0 232 42" version="1.1" xmlns="http://www.w3.org/2000/svg" xmlns:xlink="http://www.w3.org/1999/xlink">
    <!-- Generator: Sketch 54.1 (76490) - https://sketchapp.com -->
    <title>FSSC_22000</title>
    <desc>Created with Sketch.</desc>
    <g id="Symbols" stroke="none" stroke-width="1" fill="none" fill-rule="evenodd">
        <g id="Menu---Final" transform="translate(-135.000000, -64.000000)" fill-rule="nonzero">
            <g id="FSSC_22000" transform="translate(135.000000, 64.000000)">
                <polygon id="Path" fill="#2A8961" points="65 10 65 14.2032164 54.8089172 14.2032164 54.8089172 19.3395468 65 19.3395468 65 23.5427632 54.8089172 23.5427632 54.8089172 33 49 33 49 10"></polygon>
                <path d="M84.9385282,10.8212362 L84.9385282,15.3829387 C81.8217274,13.9933564 79.3351621,13.2957178 77.4788322,13.2900228 C76.6079273,13.2521587 75.7415805,13.4343804 74.9607551,13.8196586 C74.4069825,14.0714338 74.0465347,14.6154939 74.0325902,15.2206309 C74.0569907,15.7222144 74.3021546,16.1877282 74.7029315,16.4934655 C75.7122762,17.17302 76.8190719,17.6971751 77.9858853,18.0482031 C79.4144736,18.5489373 80.8095424,19.1395653 82.1626275,19.8165035 C83.2219969,20.3784908 84.1434514,21.1660665 84.8611812,22.1229823 C85.64796,23.2195193 86.0469027,24.5443474 85.995605,25.8902309 C86.0499416,27.8973669 85.1246864,29.8067771 83.5119043,31.0157394 C81.6115739,32.4008075 79.2913522,33.0972164 76.9374027,32.9890601 C73.9614684,32.9696362 71.040525,32.1901002 68.4550064,30.7252939 L68.4550064,25.6937531 C69.7678341,26.5969024 71.1702624,27.3640356 72.6403427,27.9831469 C73.8658239,28.4646426 75.1727851,28.7082263 76.4905084,28.7007181 C78.7822737,28.7007181 79.9281564,27.9831469 79.9281564,26.5480045 C79.9059312,26.0084701 79.6564053,25.5031139 79.2406268,25.1555747 C78.2295673,24.444132 77.1052083,23.9069873 75.9147024,23.5666671 C74.4866,23.0879447 73.0913969,22.5172348 71.7379602,21.8581643 C70.6897497,21.3010528 69.7819008,20.5154706 69.0823771,19.5602281 C68.3160436,18.4437984 67.9387178,17.1085844 68.0081121,15.7588093 C67.9619548,13.8388585 68.8720657,12.0199769 70.4402481,10.8981188 C72.3364146,9.57211286 74.6212609,8.90819895 76.9374027,9.01022325 C79.7015612,9.05889512 82.4256963,9.67548887 84.9385282,10.8212362 Z" id="Path" fill="#2A8961"></path>
                <path d="M104.963677,10.8044477 L104.963677,15.3783776 C101.843396,13.9850706 99.356923,13.2855619 97.5042565,13.2798517 C96.6321608,13.2392287 95.7641838,13.4220786 94.9833682,13.8109072 C94.4242129,14.0592118 94.0590085,14.6062473 94.0455633,15.2156347 C94.0699911,15.7185627 94.3154288,16.1853243 94.716653,16.4918811 C95.7185896,17.1665735 96.8142507,17.6917655 97.9688571,18.0507861 C99.4002972,18.5496388 100.79713,19.1419376 102.150262,19.8238263 C103.210814,20.38732 104.133297,21.1770067 104.851829,22.1364875 C105.641948,23.2351768 106.044327,24.5634424 105.996123,25.9138341 C106.047646,27.9257362 105.121958,29.8390236 103.509649,31.0530812 C101.608844,32.4148402 99.3015102,33.0970164 96.9622225,32.9888642 C93.998147,32.9788889 91.0861933,32.2121163 88.5047713,30.7618572 L88.5047713,25.7168296 C89.8134576,26.6216327 91.2116664,27.3908116 92.6775727,28.01236 C93.9074647,28.4949982 95.2186695,28.7392095 96.5406405,28.7318546 C98.8464359,28.7318546 99.9821262,28.01236 99.9821262,26.5733708 C99.9630951,26.0315819 99.7126832,25.523639 99.2938291,25.1772087 C98.2827371,24.4620068 97.1567946,23.9232653 95.9641916,23.5840421 C94.5372059,23.1042592 93.1432928,22.5320087 91.7913902,21.8709597 C90.7378643,21.3149064 89.8256647,20.5268765 89.1242387,19.5668639 C88.3400246,18.4503582 87.9469532,17.1078245 88.0057559,15.7466903 C87.9630248,13.8203545 88.8771985,11.996942 90.4492107,10.872971 C92.3606885,9.54702114 94.6614887,8.89300673 96.9880336,9.01427659 C99.74185,9.0594601 102.456804,9.66884448 104.963677,10.8044477 Z" id="Path" fill="#2A8961"></path>
                <path d="M131,25.5277779 L131,30.6633257 C128.154597,32.1944087 124.969873,32.9974831 121.733532,33 C117.544226,33 114.208297,31.8587671 111.725746,29.5763014 C109.300928,27.4177791 107.941716,24.3186139 108.001918,21.085529 C107.973399,17.7957441 109.412493,14.6620694 111.932625,12.5262826 C114.541603,10.181049 117.960858,9.00843228 122.19039,9.00843228 C125.17365,8.91318908 128.12673,9.6262855 130.732781,11.0712107 L130.732781,16.223877 C128.280033,14.7419687 125.482483,13.9162832 122.612769,13.827288 C120.378553,13.7268577 118.184145,14.4389724 116.44087,15.8301517 C114.882033,17.078654 113.999038,18.9778037 114.053138,20.9656995 C114.013956,22.9430553 114.879305,24.8315228 116.40639,26.1012474 C118.095345,27.4960263 120.245459,28.2188653 122.440369,28.1297888 C123.626551,28.132524 124.807337,27.9712017 125.948697,27.650471 C127.687883,27.0807082 129.377272,26.3707815 131,25.5277779 L131,25.5277779 Z" id="Path" fill="#2A8961"></path>
                <path d="M155.07924,30.6043443 C155.323799,30.6028066 155.558908,30.6978966 155.732612,30.8686008 C155.913157,31.0387764 156.010383,31.2782348 155.999119,31.5249796 L155.999119,32.1302121 C155.980522,32.6192078 155.572725,33.004665 155.07924,32.999701 L140.91137,32.999701 C140.664147,33.0061903 140.426081,32.9067983 140.257997,32.7269201 C140.08926,32.5496795 139.996755,32.3142556 140.000087,32.0705413 C140.005136,31.5626127 140.065668,31.0567212 140.180624,30.5617223 C140.290937,30.100971 140.455405,29.6546492 140.670654,29.2319158 C140.894953,28.8503712 141.138856,28.4804939 141.401399,28.1237437 C141.692549,27.7403753 142.011483,27.3785511 142.355667,27.0411448 C142.716742,26.68312 143.086413,26.3506683 143.464681,26.0437899 C143.851547,25.7283871 144.238412,25.430033 144.625277,25.1402034 L145.820262,24.2877633 C146.215724,24.0064581 146.611186,23.7422017 147.006649,23.4864697 C147.823365,22.9494324 148.579901,22.4038708 149.284856,21.8412603 C149.989811,21.2786498 150.660377,20.6989906 151.296556,20.1363801 C151.805669,19.6472877 152.219507,19.06934 152.517331,18.4315 C152.791278,17.8242652 152.943129,17.1698727 152.964375,16.5049854 C152.964227,15.90597 152.847464,15.3126147 152.620495,14.7574832 C152.41457,14.2661706 152.093303,13.8307169 151.683421,13.4873475 C150.624029,12.7419732 149.344715,12.3671185 148.046887,12.4217974 C147.235476,12.4150066 146.429254,12.5506469 145.665515,12.8224442 C145.040861,13.0413234 144.48606,13.4208146 144.057875,13.9220919 C143.176187,15.1369549 142.736671,16.6126771 142.811309,18.1075727 C142.822294,18.3500865 142.728481,18.5857409 142.553398,18.7554272 C142.378823,18.92382 142.143531,19.0159141 141.900026,19.0111592 L141.263847,19.0111592 C141.020342,19.0159141 140.78505,18.92382 140.610475,18.7554272 C140.435392,18.5857409 140.341579,18.3500865 140.352564,18.1075727 C140.386952,12.7712978 142.951726,10.0690628 148.046887,10.0008676 C148.999328,9.98777378 149.947942,10.1229674 150.858108,10.4015144 C151.697113,10.6604508 152.487213,11.0550444 153.196495,11.5693573 C154.694238,12.7800259 155.521082,14.6255034 155.42312,16.539083 C155.398895,17.4770217 155.188563,18.4010412 154.804135,19.2583669 C154.412582,20.1290327 153.874792,20.9274639 153.213689,21.6196259 C152.543596,22.3064936 151.837674,22.9580824 151.098825,23.5717137 C150.339891,24.2070932 149.538546,24.7909224 148.700259,25.3192158 L148.700259,25.3192158 C147.213172,26.3110881 145.778447,27.3780438 144.401755,28.5158661 L144.401755,28.5158661 C143.691072,29.0775753 143.117929,29.7915973 142.725339,30.6043443 L155.07924,30.6043443 Z" id="Path" fill="#808285"></path>
                <path d="M174.046698,30.6285079 C174.293477,30.6265769 174.531028,30.7215907 174.70762,30.8928575 C174.879974,31.0424858 174.985034,31.2543061 174.999455,31.4812484 L174.999455,32.0866942 C175.008198,32.330597 174.911329,32.5665319 174.73337,32.734777 C174.562017,32.9138597 174.320901,33.0102989 174.072448,32.9991265 L159.90984,32.9991265 C159.665978,33.0031631 159.431901,32.903942 159.266085,32.7262496 C159.095255,32.5498023 158.999885,32.3144599 159,32.0696394 C159.012029,31.5615183 159.07529,31.0558742 159.188835,30.5602887 C159.298973,30.099375 159.463181,29.6528959 159.678089,29.2300135 C159.902033,28.8483344 160.14555,28.4783267 160.407678,28.1214509 C160.698366,27.7379474 161.016795,27.3759957 161.360435,27.0384704 C161.708611,26.6836927 162.078394,26.3504966 162.467693,26.0407641 C162.845363,25.7252501 163.231616,25.4267909 163.626452,25.1368591 L164.810961,24.2841186 C165.205797,24.0027143 165.600634,23.7383647 165.99547,23.4825426 C166.85381,22.9453161 167.574816,22.3995621 168.270071,21.8367534 C168.965326,21.2739447 169.643415,20.6940811 170.28717,20.1312724 C170.792715,19.6396588 171.205517,19.0620405 171.506012,18.4257914 C171.776571,17.8177485 171.925261,17.1631493 171.943766,16.4985979 C171.947861,15.8989709 171.831123,15.3045933 171.60043,14.7504799 C171.409463,14.2645422 171.10323,13.8315914 170.707756,13.4884239 C169.65004,12.742787 168.372753,12.3678001 167.076978,12.4224983 C166.263973,12.414696 165.456033,12.5503991 164.690794,12.8232864 C164.067128,13.0422427 163.513206,13.4218676 163.085698,13.9233216 C162.209095,15.1404047 161.770663,16.6153414 161.841105,18.1102774 C161.852073,18.3528767 161.758408,18.5886141 161.583603,18.7583602 C161.414775,18.9297739 161.181096,19.0226358 160.939848,19.0141824 L160.296093,19.0141824 C160.054846,19.0226358 159.821167,18.9297739 159.652338,18.7583602 C159.477533,18.5886141 159.383868,18.3528767 159.394836,18.1102774 C159.394836,12.7721219 161.95555,10.0689345 167.076978,10.0007153 C168.02783,9.98887518 168.974746,10.1240884 169.88375,10.4015033 C170.721426,10.660531 171.510275,11.0552637 172.218434,11.5697578 C173.717448,12.7774026 174.541301,14.6269102 174.432951,16.5412349 C174.41582,17.4794486 174.208554,18.4046115 173.82353,19.2614771 C173.429458,20.1307256 172.892852,20.9289424 172.235601,21.6235683 C171.583263,22.2887059 170.879424,22.9367887 170.124085,23.576344 C169.366353,24.2119474 168.566276,24.7959825 167.729317,25.324462 L167.729317,25.324462 C166.243109,26.3146206 164.810549,27.3820314 163.437617,28.5222389 L163.437617,28.5222389 C162.710446,29.08212 162.125444,29.8034912 161.729521,30.6285079 L174.046698,30.6285079 Z" id="Path" fill="#808285"></path>
                <path d="M193.996718,21.5085508 C194.013913,22.8698849 193.86454,24.2284582 193.551656,25.556459 C193.260625,26.791111 192.793732,27.9815186 192.164111,29.0941969 C191.522911,30.2804204 190.542085,31.2668382 189.336659,31.9377688 C187.999627,32.6404671 186.498176,33.005961 184.973307,32.9999265 C183.477124,32.9983769 182.005829,32.6329147 180.697223,31.9377688 C179.50044,31.2702056 178.52368,30.2935294 177.878498,29.1192872 C177.243105,27.9976213 176.767621,26.7993212 176.464772,25.556459 C176.134473,24.2338571 175.979081,22.8766888 176.002257,21.5169143 C175.979092,20.1516191 176.134474,18.7889198 176.464772,17.4606427 C176.767603,16.2097894 177.24303,15.0031947 177.878498,13.8727241 C178.512503,12.6843404 179.491345,11.6968701 180.697223,11.0291522 C182.015625,10.3463174 183.492174,9.9925457 184.990761,10.0004483 C186.51241,9.98560773 188.013306,10.3394591 189.354112,11.0291522 C190.554288,11.6830202 191.537404,12.6484057 192.190291,13.8141799 C192.818758,14.9479832 193.285446,16.1575613 193.577837,17.410462 C193.88322,18.7562406 194.023797,20.13156 193.996718,21.5085508 Z M191.518335,21.5085508 C191.518335,20.9900171 191.518335,20.4380297 191.422341,19.8358615 C191.326347,19.2336933 191.282714,18.6817059 191.195447,18.1631722 C191.084202,17.6418649 190.938462,17.1278687 190.759111,16.624298 C190.584531,16.1397137 190.362463,15.6720613 190.095882,15.2276024 C189.14758,13.4043711 187.440055,12.467665 184.973307,12.4174844 C183.886024,12.3924052 182.813046,12.6588978 181.875328,13.1869214 L181.875328,13.1869214 C181.471444,13.4436682 181.099589,13.7439229 180.767037,14.0818102 C180.42854,14.4343633 180.135543,14.8246758 179.894366,15.2443293 C179.62837,15.6779954 179.411863,16.137847 179.24859,16.6159346 C179.067754,17.1245647 178.936296,17.6481075 178.855889,18.1798991 C178.35556,20.3477111 178.35556,22.5941196 178.855889,24.7619316 C178.94014,25.2910701 179.074505,25.8117547 179.257317,26.3175326 C179.432076,26.8114335 179.651059,27.2899313 179.91182,27.747682 C180.356061,28.5818081 181.028782,29.2843485 181.857875,29.7799995 C182.287217,30.0594363 182.762013,30.2685812 183.262874,30.3988946 C183.832951,30.538096 184.420048,30.6028016 185.008214,30.5912538 C185.596266,30.600516 186.183048,30.5358451 186.753555,30.3988946 C187.246106,30.275172 187.710589,30.0653569 188.123647,29.7799995 C188.540249,29.5489087 188.924412,29.2678617 189.266845,28.9436549 C189.607738,28.5960469 189.900993,28.2082009 190.139516,27.7894992 C190.416194,27.3371705 190.641467,26.8577135 190.811472,26.3593499 C190.982692,25.8484505 191.12543,25.329183 191.23908,24.8037488 C191.326347,24.2601248 191.404887,23.7165007 191.465974,23.1310595 C191.513863,22.5915193 191.531342,22.0498959 191.518335,21.5085508 L191.518335,21.5085508 Z" id="Shape" fill="#808285"></path>
                <path d="M212.995372,21.5085445 C213.021271,22.8702552 212.871789,24.2298274 212.550311,25.5564579 C212.258301,26.7896219 211.794537,27.9795384 211.171493,29.0942004 C210.527538,30.2785392 209.54737,31.2642977 208.344043,31.937776 C207.006872,32.640132 205.505516,33.0056035 203.980695,32.9999351 C202.484464,32.998751 201.013077,32.6332651 199.704614,31.937776 C198.507832,31.2702119 197.531073,30.2935345 196.885892,29.1192908 C196.251406,27.9963187 195.773186,26.798513 195.46344,25.5564579 C195.141731,24.2324362 194.986456,22.8762833 195.000925,21.516908 C194.986481,20.152011 195.141747,18.7903246 195.46344,17.4606312 C195.773117,16.2105649 196.251286,15.0044551 196.885892,13.8727079 C197.519896,12.6843227 198.498737,11.6968512 199.704614,11.0291324 C201.020283,10.3473213 202.493743,9.99357007 203.989422,10.0004271 C205.511026,9.9859485 207.011828,10.3397785 208.35277,11.0291324 C209.550915,11.6855187 210.533384,12.6502712 211.188946,13.8141637 C211.810808,14.9499237 212.274376,16.1590195 212.567764,17.4104504 C212.884764,18.7545621 213.028375,20.1308894 212.995372,21.5085445 L212.995372,21.5085445 Z M210.516991,21.5085445 C210.516991,20.9900102 210.516991,20.438022 210.429724,19.8358531 C210.342457,19.2336841 210.290096,18.6816959 210.194103,18.1631616 C210.086885,17.6409432 209.941072,17.1266888 209.757768,16.6242854 C209.586178,16.139931 209.367029,15.67227 209.103266,15.227588 C208.143329,13.4043543 206.432897,12.4676471 203.971969,12.4174663 C202.887579,12.3935067 201.817721,12.6599758 200.882718,13.1869044 L200.882718,13.1869044 C200.477145,13.4414827 200.105036,13.7419423 199.774428,14.0817944 C199.433224,14.4322259 199.139975,14.8228753 198.901758,15.2443149 C198.636486,15.6794931 198.41723,16.138976 198.247256,16.615922 C198.074604,17.1267954 197.943315,17.6496675 197.854555,18.1798885 C197.354227,20.3477033 197.354227,22.5941147 197.854555,24.7619295 C197.94298,25.2902628 198.077255,25.8106027 198.255983,26.3175326 C198.433753,26.8116345 198.655651,27.2901241 198.919212,27.7476838 C199.363453,28.5818109 200.036173,29.2843523 200.865265,29.7800039 C201.29371,30.0609617 201.768782,30.2702289 202.270263,30.3988998 C202.826064,30.5351779 203.398336,30.5998671 203.971969,30.5912593 C204.560045,30.6010065 205.146892,30.5363282 205.717308,30.3988998 C206.212572,30.2752364 206.679929,30.0654587 207.096126,29.7800039 C207.509983,29.5487759 207.891241,29.2677081 208.230596,28.9436582 C208.568458,28.5936582 208.861428,28.2061875 209.103266,27.7895011 C209.377169,27.3369342 209.599522,26.8574633 209.766495,26.3593499 C209.941759,25.84959 210.084558,25.3300993 210.194103,24.8037468 C210.290096,24.260122 210.368637,23.7164973 210.429724,23.1310553 C210.489435,22.5921309 210.518567,22.0504966 210.516991,21.5085445 L210.516991,21.5085445 Z" id="Shape" fill="#808285"></path>
                <path d="M231.996715,21.5085363 C232.013927,22.8698687 231.864409,24.2284402 231.551221,25.5564394 C231.259907,26.7910899 230.792561,27.9814959 230.162329,29.0941728 C229.520506,30.2803948 228.538729,31.2668114 227.332133,31.9377411 C225.994229,32.6414723 224.491036,33.0070347 222.964546,32.9998975 C221.466911,32.9983478 219.994188,32.6328861 218.684312,31.9377411 C217.493363,31.263342 216.522355,30.2844206 215.880321,29.1108997 C215.244312,27.9892352 214.768366,26.7909366 214.465223,25.5480759 C214.134603,24.2254757 213.979061,22.8683091 214.002259,21.5085363 C213.979072,20.1432428 214.134604,18.7805453 214.465223,17.4522698 C214.768348,16.2014182 215.244237,14.994825 215.880321,13.8643557 C216.514014,12.6829776 217.486797,11.6993654 218.684312,11.0291509 C220.003993,10.346317 221.481976,9.99254571 222.982017,10.0004483 C224.505143,9.98560775 226.007496,10.3394586 227.349603,11.0291509 C228.550943,11.6830181 229.535014,12.6484023 230.188534,13.8141751 C230.817611,14.947977 231.284753,16.1575536 231.577427,17.4104526 C231.883107,18.7562296 232.02382,20.1315473 231.996715,21.5085363 L231.996715,21.5085363 Z M229.515926,21.5085363 C229.515926,20.9900033 229.515926,20.4380165 229.419839,19.8358491 C229.323752,19.2336817 229.280076,18.6816949 229.192725,18.1631619 C229.081372,17.6418553 228.935491,17.1278597 228.755966,16.6242896 C228.584273,16.1358874 228.367969,15.6629185 228.109563,15.210869 C227.148694,13.3876399 225.4366,12.4509351 222.973282,12.4007544 C221.884943,12.3756753 220.810924,12.6421675 219.872295,13.1701906 L219.872295,13.1701906 C219.46802,13.426937 219.095803,13.7271913 218.762928,14.0650782 C218.424103,14.4176309 218.130822,14.8079429 217.889411,15.2275958 C217.623156,15.6612614 217.40644,16.1211123 217.243008,16.5991993 C217.061996,17.1078289 216.930411,17.6313709 216.849925,18.1631619 C216.349111,20.3309711 216.349111,22.5773768 216.849925,24.7451861 C216.934259,25.274324 217.068754,25.7950079 217.251743,26.3007852 C217.426672,26.7946854 217.645867,27.2731826 217.906881,27.7309327 C218.351554,28.5650577 219.024928,29.2675973 219.854825,29.7632477 C220.284585,30.0426841 220.759841,30.2518287 221.261188,30.382142 C221.831819,30.5213432 222.419485,30.5860488 223.008222,30.574501 C223.596845,30.5837632 224.184196,30.5190923 224.755257,30.382142 C225.248286,30.2584196 225.71322,30.0486047 226.126679,29.7632477 C226.543685,29.5321572 226.928221,29.2511105 227.270987,28.9269041 C227.598082,28.5698778 227.879591,28.1768146 228.109563,27.756023 C228.380143,27.3017111 228.602543,26.8226067 228.773436,26.3258755 C228.944823,25.8149768 229.087699,25.2957099 229.20146,24.7702764 C229.288811,24.226653 229.367428,23.6830297 229.428574,23.0975892 C229.48693,22.5697497 229.516088,22.0393246 229.515926,21.5085363 Z" id="Shape" fill="#808285"></path>
                <path d="M34.9539451,6.22900236 C28.2422249,-0.640656045 17.6647765,-1.98643663 9.43782217,2.98255751 C-0.271329007,8.70810569 -2.6817019,21.6095618 3.10319305,30.9104155 C3.23851223,31.1296559 3.94893792,30.9104155 3.88127833,30.6405811 C1.99846318,24.6253221 3.03337923,18.0788948 6.68069387,12.9327002 C9.40680189,8.34594604 13.8980609,5.07247029 19.108786,3.87442529 C24.3195111,2.67638029 29.7950077,3.65830902 34.2604343,6.5915923 C34.4464981,6.75180646 35.1907536,6.46510744 34.9539451,6.22900236 Z" id="Path" fill="#2A8961"></path>
                <path d="M35.6295123,3.15780077 C32.6351889,1.33254478 28.6651869,1.98380983 25.5362871,2.94356885 L25.4774099,2.94356885 L25.4269438,2.94356885 C17.907491,5.6771682 9.38712668,12.9953307 10.0347753,21.8988095 C10.0347753,22.1387493 10.7833562,21.8988095 10.8338223,21.727424 C12.6001367,15.9260235 17.1420881,11.4442916 22.314866,8.70212297 C27.487644,5.95995434 36.5547247,5.05161098 37.8416109,12.6696982 C37.8416109,12.9182072 38.5986028,12.6696982 38.6406579,12.4983127 C39.473349,8.8392314 39.0107428,5.24870435 35.6295123,3.15780077 Z" id="Path" fill="#AAD0C0"></path>
                <path d="M36.2166341,13.5738815 C35.637423,12.9008302 35.4645241,12.7325674 34.8507332,12.0847555 C34.6518995,11.874427 33.8997895,12.0847555 34.1072681,12.3960418 C37.9559512,18.5069889 37.5577974,26.2899507 33.1044547,31.9986607 C30.3347738,35.4338522 26.3082051,37.6945842 21.8660291,38.3085166 C17.2669195,39.0320467 12.7715493,37.3241791 8.69113626,35.4396354 C8.44043292,35.3218515 7.77477233,35.5237669 8.07734532,35.8518794 C14.2238997,42.5823923 25.0905928,44.2061285 32.6462728,38.6198028 C36.5684054,35.7846392 39.1557613,31.5349321 39.8271295,26.8253146 C40.4984978,22.1156971 39.1975895,17.3410339 36.2166341,13.5738815 Z" id="Path" fill="#808285"></path>
                <path d="M31.8198848,20.1530739 C31.7771167,19.8973116 31.0415057,19.9910911 30.9645231,20.2212772 C30.1091614,24.765321 27.2864676,28.5506033 23.8308062,31.5600732 C19.365818,35.439135 9.28965675,39.1732648 6.95451922,31.2872601 C6.87753666,31.0059215 6.15903281,31.1338027 6.09915749,31.4066158 C5.08127702,39.4631288 12.0866896,41.4154478 18.5446707,39.0794853 C25.3875646,36.6241671 31.8883138,29.3690427 31.9995108,21.9348847 C32.0061132,21.3361464 31.9458674,20.7385342 31.8198848,20.1530739 L31.8198848,20.1530739 Z" id="Path" fill="#BCBEC0"></path>
            </g>
        </g>
    </g>
</svg>